<?xml version="1.0" encoding="UTF-8"?>
<svg id="Livello_1" data-name="Livello 1" xmlns="http://www.w3.org/2000/svg" viewBox="0 0 71 57.96">
  <defs>
    <style>
      .cls-1 {
        fill: #1a1208;
      }
    </style>
  </defs>
  <path class="cls-1" d="M16.78,7.83c.17-.03.34-.05.54-.07.07,0,.14-.02.21-.02h.03c.07,0,.15-.01.22-.02C22.65,3.38,28.95.99,35.47.99c10.52,0,19.64,6.12,23.98,14.98.01-.1.03-.2.05-.3.04-.2.11-.4.19-.59.06-.14.13-.27.2-.41C55.23,5.95,46.03,0,35.47,0c-7.26,0-14.23,2.85-19.4,7.95.14-.03.27-.05.41-.08.1-.02.2-.03.3-.05Z"/>
  <path class="cls-1" d="M62.77,32.25h-.13c-.27-.01-.54-.05-.8-.12h-.05c-.43,2.54-1.23,5.03-2.38,7.35.33.08.65.16.98.24,1.15-2.37,1.95-4.88,2.38-7.48Z"/>
  <path class="cls-1" d="M8.81,31.28c-.14.05-.28.11-.42.16-.11.04-.22.08-.33.11.38,2.68,1.15,5.29,2.28,7.74.31-.07.64-.15.98-.23-1.18-2.49-1.96-5.14-2.31-7.87-.07.02-.13.05-.2.08Z"/>
  <path class="cls-1" d="M35.47,54.39c-5.23,0-10.34-1.53-14.69-4.42-.47.07-.95.14-1.43.21,4.63,3.34,10.19,5.15,15.9,5.2,5.71.05,11.29-1.68,15.98-4.94-.46-.08-.94-.16-1.44-.23-4.28,2.74-9.25,4.19-14.33,4.19Z"/>
  <path class="cls-1" d="M37.89,36.65c.03.09.07.18.12.27.07.13.16.25.27.35.01.01.03.03.04.04.2.18.43.32.67.43.25.1.52.18.79.22.28.04.54.07.78.09.13,0,.26,0,.38,0h.31c.12,0,.23-.02.35-.03.07,0,.13,0,.2-.02.12-.01.25-.03.37-.04.06,0,.12-.02.18-.03.18-.03.36-.06.55-.1.3-.07.59-.15.87-.24.26-.08.51-.17.75-.27.19-.08.38-.17.57-.26.73-.38,1.41-.85,2.02-1.41l.02-.02c.11-.1.22-.21.32-.31.1-.1.19-.19.28-.29.37-.39.72-.8,1.04-1.22.5-.67.97-1.35,1.41-2.06.44-.71.88-1.41,1.31-2.1.36-.57.72-1.14,1.08-1.72.7-1.11,1.38-2.22,2.06-3.33.86-1.42,1.71-2.86,2.55-4.33.07-.12.14-.23.2-.35.07-.12.12-.2.17-.3l.08-.14h-1.65c-.17,0-.34.02-.51.03-.14,0-.28.04-.41.1-.22.11-.39.27-.52.48-.08.12-.16.24-.26.35-.14-.34-.39-.62-.71-.8-.3-.16-.63-.24-.97-.25h-.12c-.15,0-.29.01-.44.03h-.04c-.16.03-.32.07-.47.11-.35.1-.69.22-1.02.36-.78.34-1.51.79-2.17,1.34-.64.55-1.24,1.14-1.8,1.76l-.02.02c-.16.17-.31.36-.46.55-.36.43-.69.87-1,1.34-.44.67-.78,1.39-1,2.16-.02.08-.03.16-.04.23-.01.08-.03.15-.04.23-.01.08-.02.17-.03.25s-.02.17-.03.25v.08c0,.15-.01.31,0,.46,0,.15.02.3.04.45.05.32.16.62.31.91.16.29.39.54.67.71.08.04.16.07.25.1l.08.02c.06.02.12.03.18.04h.08c.07.02.14.03.21.03h.06c.09,0,.17,0,.26-.02.38-.05.75-.17,1.09-.35.36-.19.69-.41,1.01-.66.33-.26.62-.51.88-.75-.5.93-1.02,1.85-1.55,2.76-.54.91-1.13,1.78-1.76,2.62-.09.12-.18.24-.28.35-.08.1-.15.19-.23.29-.08.1-.18.22-.27.33-.02.02-.04.05-.06.07-.3.34-.63.65-.98.93-.23.18-.47.34-.73.48-.13.07-.26.15-.4.21-.05.02-.1.04-.15.06-.32.13-.66.22-1,.27l-.12.02c-.16.02-.32.03-.48.03-.18,0-.36-.03-.53-.08-.03-.01-.06-.02-.09-.04-.13-.05-.25-.12-.36-.21-.05-.05-.1-.1-.13-.16-.05-.09-.08-.19-.09-.29,0,0,0-.02,0-.02,0-.12.03-.24.08-.35.05-.11.11-.22.18-.33.07-.1.12-.22.14-.34.01-.06.02-.13,0-.19,0-.07-.02-.15-.05-.22-.03-.06-.06-.11-.09-.17-.06-.1-.14-.18-.23-.24-.09-.06-.2-.11-.31-.13-.04-.01-.08-.02-.13-.03-.05,0-.09,0-.13,0h-.02c-.06,0-.13,0-.19.01-.21.02-.41.1-.58.22-.05.03-.09.06-.14.1-.22.16-.37.39-.44.65-.02.08-.04.16-.05.25-.03.23-.01.47.05.69,0,.02,0,.03,0,.05ZM48.84,28.45c-.24.22-.5.41-.79.57-.06.03-.11.06-.17.09-.24.11-.49.18-.75.21-.1.01-.2.02-.29.02h-.09c-.34-.02-.54-.16-.58-.41-.04-.3-.01-.6.08-.88.1-.33.22-.66.38-.97.15-.32.27-.55.34-.69.5-.89,1.05-1.76,1.64-2.59.6-.83,1.26-1.61,1.98-2.33.14-.14.3-.29.48-.45.18-.16.37-.31.57-.45l.04-.03c.18-.12.38-.23.58-.32.17-.08.35-.12.54-.12.03,0,.06,0,.09,0,.08,0,.16,0,.23.03.07.03.14.08.19.13,0,0,0,.02.01.02.08.12.13.25.14.39.01.13.01.27,0,.4,0,.04,0,.08,0,.12-.02.15-.05.3-.09.45-.14.46-.31.91-.53,1.35-.22.43-.47.85-.74,1.25-.28.41-.56.8-.85,1.19-.15.2-.3.42-.45.62-.13.18-.27.37-.4.55-.2.29-.43.6-.68.91,0,0-.01.01-.01.02-.25.32-.53.63-.83.91Z"/>
  <path class="cls-1" d="M4.88,19.66s0,.04,0,.06c.03.35.09.69.19,1.02.07.23.16.46.28.67.06.1.12.21.19.3.02.03.05.06.07.09.05.06.1.13.15.19h.02c.1.12.2.22.3.31.09.07.18.14.27.2.13.09.27.16.41.23.12.05.24.09.37.13.14.04.29.06.44.08.05,0,.09,0,.14.01.1,0,.2.02.31.02h.32c.12,0,.23-.02.35-.03.18-.03.36-.06.54-.11.21-.06.42-.12.63-.21.12-.05.24-.11.37-.17h.01l.09-.05c.22-.11.43-.22.63-.34.14-.09.27-.18.41-.27.08-.05.17-.1.24-.16l.06-.05h.02s.31-.25.31-.25l.02-.02c.19-.15.37-.3.54-.46.05-.05.1-.1.14-.15.05-.05.11-.12.16-.18.05-.06.1-.13.14-.2.03-.04.05-.09.07-.13,0,0,0-.02,0-.02v-.02s.02-.09.02-.14c0-.06-.02-.11-.06-.16-.02-.03-.05-.06-.08-.08h-.02s0-.01,0-.01c-.05-.02-.1-.03-.15-.02-.11.03-.21.07-.3.13h-.03c-.11.08-.21.16-.3.25l-.04.04c-.05.05-.11.1-.17.14l-.14.12c-.06.05-.12.11-.18.16l-.09.08-.13.11c-.1.08-.21.16-.33.22-.09.05-.19.09-.29.13-.12.05-.25.1-.37.14-.13.04-.26.07-.39.1-.02,0-.04,0-.05,0-.1.02-.2.03-.31.04-.04,0-.07,0-.11,0h-.02c-.11,0-.21,0-.32,0-.13,0-.26-.02-.39-.05-.09-.02-.18-.04-.27-.07-.04,0-.07-.02-.11-.03-.06-.02-.12-.04-.18-.07-.04-.02-.08-.04-.12-.07-.02,0-.03-.02-.05-.03-.06-.03-.11-.07-.16-.11-.05-.04-.1-.09-.15-.13-.08-.08-.15-.16-.21-.24-.12-.16-.21-.33-.27-.52,0-.03-.01-.06-.02-.09-.02-.07-.03-.13-.04-.2-.01-.07-.01-.14-.02-.2-.02-.13-.03-.26-.04-.39v-.2c0-.13,0-.26.01-.4.02-.16.05-.33.08-.49.04-.22.1-.44.16-.65.04-.12.08-.25.12-.37.09-.25.19-.49.3-.72.11-.24.24-.47.38-.7.12-.2.26-.4.39-.59.03-.04.05-.07.08-.11.01-.02.03-.03.04-.05.03-.04.06-.08.09-.12.08-.11.16-.21.24-.31.04-.04.07-.09.11-.13.14-.16.28-.32.44-.47,0,0,.02-.02.03-.03.19-.2.39-.38.59-.56.2-.18.41-.34.62-.51.01,0,.03-.02.04-.03l.14-.1.07-.05c.08-.06.16-.12.24-.17.11-.07.21-.15.32-.22l.12-.08c.23-.15.46-.29.7-.43.05-.03.11-.06.15-.09.11-.06.22-.11.33-.17l.13-.07.14-.07c.05-.03.11-.06.16-.08.51-.25,1.04-.47,1.58-.65.06-.02.11-.04.17-.06.6-.2,1.21-.35,1.83-.46.5-.09,1.03-.15,1.59-.19.11,0,.21,0,.32-.01.16,0,.33-.02.5-.02h.08c.26,0,.52.02.78.04.23.02.45.05.67.09.05,0,.1.02.15.03.14.03.29.06.43.1s.25.07.37.11c.12.04.26.09.39.14l.04.02.04.02c.23.09.44.2.65.33.12.07.23.15.34.23,0,0,.02.02.03.02.13.1.26.21.38.33.17.17.33.35.46.56.04.07.08.14.12.21.03.05.05.09.08.14.06.12.1.24.15.36.01.04.02.08.03.12,0,.02.01.04.02.06.09.31.14.64.14.96,0,.14,0,.28-.02.42-.01.14-.04.25-.06.38-.01.07-.02.14-.03.21-.04.2-.1.39-.16.58-.06.16-.12.32-.19.48-.04.09-.08.19-.13.28-.12.24-.26.47-.41.7-.17.25-.36.49-.56.72-.15.17-.31.33-.48.48-.05.05-.1.1-.16.14-.09.08-.18.15-.27.22-.02.02-.05.04-.07.06-.36.27-.75.5-1.16.69-.25.12-.51.21-.77.29-.04.01-.08.03-.12.04-.04,0-.06.01-.09.02-.28.07-.57.11-.86.12h-.01c-.09,0-.2,0-.35-.01h-.16c-.1,0-.19.01-.29.02,0,0-.02,0-.03,0-.15.02-.29.06-.43.13,0,0-.01,0-.02.01-.04.02-.07.05-.1.08-.03.03-.05.07-.06.11,0,.03-.01.06-.01.1,0,.03,0,.06,0,.09.01.04.03.08.06.11s.06.06.1.08c0,0,.01,0,.02,0,.05.03.11.05.16.07.05.02.1.03.15.04.02,0,.04.01.06.02.07.02.13.03.2.04.03,0,.06,0,.09,0,.05,0,.1.01.15.02.07,0,.12,0,.18.02h.03s.09.01.11.02c.08.01.16.04.24.06.08.02.13.04.2.06.41.12.78.35,1.07.65.14.15.27.32.38.5.12.19.21.39.28.6.05.14.08.27.11.41,0,.02,0,.03,0,.04,0,.04,0,.07.01.11.05.3.07.6.06.9,0,.07,0,.14,0,.22,0,.14-.03.28-.05.42,0,.03,0,.05-.01.08-.04.24-.1.48-.17.72-.08.26-.17.52-.28.77-.06.13-.12.25-.18.38-.06.12-.13.24-.2.36-.14.24-.29.47-.46.69,0,0-.02.02-.02.03-.33.43-.71.81-1.13,1.15-.26.21-.55.39-.85.55-.07.03-.13.07-.2.1-.12.06-.25.11-.38.16-.07.03-.14.05-.21.07-.16.05-.32.09-.49.13-.02,0-.05.01-.07.02s-.05,0-.08,0c-.26.04-.51.06-.77.06-.26,0-.52-.03-.76-.11-.02,0-.05,0-.07-.02-.26-.09-.5-.22-.71-.39-.01,0-.03-.03-.04-.04-.09-.09-.18-.18-.25-.29-.04-.05-.08-.11-.12-.16-.04-.05-.07-.1-.11-.15-.04-.05-.06-.08-.09-.12-.07-.08-.14-.16-.22-.24-.04-.04-.09-.09-.14-.12-.04-.03-.08-.06-.12-.08-.09-.05-.18-.08-.28-.08-.02,0-.04,0-.06.01-.03,0-.05,0-.08.02,0,0,0,0-.01,0-.04.01-.07.04-.1.07-.03.03-.05.07-.06.1-.02.05-.03.1-.02.16,0,.08.02.16.03.24v.04c.02.09.06.18.11.27,0,.02.02.03.03.05.04.08.09.15.13.22.03.05.07.1.11.14.05.06.1.11.16.16,0,0,.01.02.02.02.05.04.09.08.14.11.05.03.09.08.14.11.09.07.19.14.28.2h.02c.36.24.75.43,1.16.58.17.06.34.12.52.17.05.01.1.03.15.04.15.04.31.07.46.1.05,0,.1.01.15.02.11.02.21.03.31.04.06,0,.12.01.18.02.09,0,.19.02.28.02h.19c.12,0,.24,0,.36,0,.41-.01.81-.06,1.21-.14.14-.03.27-.06.41-.09.4-.1.8-.23,1.18-.4.13-.05.25-.11.37-.17.39-.19.75-.42,1.09-.69.09-.07.18-.14.26-.22.2-.18.39-.38.56-.59.14-.17.27-.36.38-.55.03-.04.06-.09.08-.13.07-.12.13-.24.19-.37.04-.09.08-.18.11-.28.12-.29.23-.59.3-.9.02-.1.04-.2.06-.3.02-.1.03-.2.04-.29,0-.04,0-.08.02-.11,0-.03.01-.08.01-.11.01-.14.02-.27.03-.41v-.41c0-.1-.01-.19-.02-.29,0-.04,0-.08,0-.12-.02-.14-.04-.27-.06-.4-.05-.27-.12-.54-.21-.8-.05-.13-.1-.26-.15-.39-.1-.24-.23-.46-.37-.68l-.03-.04c-.08-.11-.16-.22-.24-.33-.07-.07-.14-.13-.22-.2-.23-.21-.46-.42-.7-.63-.08-.07-.16-.13-.25-.19-.17-.12-.35-.22-.55-.3-.1-.04-.2-.08-.3-.11.44,0,.88-.06,1.31-.18.15-.04.29-.09.44-.14.29-.11.57-.22.84-.34.22-.09.42-.2.62-.3.05-.02.11-.05.16-.08.1-.05.2-.1.29-.16.14-.08.27-.16.4-.24.11-.07.22-.15.33-.23.11-.08.21-.16.31-.25.4-.34.75-.73,1.04-1.17.29-.43.5-.91.63-1.41.03-.13.06-.26.08-.39.02-.13.04-.26.04-.39,0-.13.01-.27,0-.4,0-.14-.01-.27-.03-.41-.04-.39-.12-.78-.24-1.15-.11-.31-.25-.6-.42-.88-.08-.13-.16-.25-.25-.36-.09-.12-.19-.23-.29-.34-.17-.18-.35-.35-.55-.52-.43-.36-.91-.67-1.42-.92-.17-.08-.35-.16-.53-.23-.18-.07-.36-.13-.53-.19-.18-.06-.36-.11-.54-.16-.18-.05-.37-.11-.56-.15h0c-.28-.06-.56-.11-.84-.15-.28-.04-.57-.07-.86-.09-.31-.02-.62-.03-.92-.03-.25,0-.5,0-.75.02-.06,0-.12,0-.18.01-.2.01-.41.03-.61.05-.07,0-.15.01-.22.02-.26.03-.51.07-.77.11-.18.03-.37.07-.55.11-.59.12-1.17.27-1.74.45-.09.03-.17.05-.26.08-.28.09-.56.19-.83.3-.37.14-.72.29-1.07.45-.22.1-.43.2-.63.3-.21.1-.41.21-.61.32-.09.05-.17.1-.25.15-.17.1-.34.2-.51.3l-.06.04c-.08.05-.16.11-.24.16-.15.1-.3.19-.45.29-.23.16-.45.32-.67.49-.15.12-.31.25-.46.37-.08.06-.16.12-.23.19-.2.18-.4.36-.6.55-.12.12-.23.24-.35.36-.08.09-.17.17-.25.26-.14.16-.28.33-.41.5-.39.51-.73,1.06-1.01,1.64-.02.04-.03.08-.05.12-.08.17-.15.35-.21.53-.08.23-.15.46-.21.71-.03.12-.06.25-.08.37-.04.24-.07.49-.09.74,0,.12-.01.25-.01.37,0,.07,0,.14,0,.21-.02.05-.02.1-.01.15Z"/>
  <path class="cls-1" d="M2.84,30.88c.18.03.37.05.56.07h.17c.14.02.28.03.42.03h.17c.19,0,.38,0,.57-.02.25-.02.49-.05.74-.09.07-.01.14-.02.22-.03.15-.03.29-.06.44-.09.17-.04.34-.08.51-.13.17-.05.31-.09.46-.13.18-.06.36-.11.53-.17.09-.03.17-.06.26-.09.01,0,.03,0,.04-.01h.03c.14-.06.27-.11.4-.16.18-.07.35-.15.53-.22.09-.04.19-.07.28-.12.18-.08.35-.17.52-.27l.09-.05c.3-.16.6-.34.87-.53.02,0,.03-.02.04-.03.18-.12.35-.25.52-.38.03-.02.06-.04.09-.07l.03-.02c.11-.08.2-.17.3-.26.1-.09.23-.19.34-.29.04-.04.08-.08.12-.11.12-.11.23-.22.34-.33.05-.05.09-.09.14-.14.11-.11.21-.22.31-.33l.03-.04c.09-.09.17-.19.26-.28.17-.19.33-.37.49-.57l.06-.07c.54-.67,1.04-1.37,1.5-2.1.15-.24.3-.49.45-.74,0-.01.01-.02.02-.03.18-.31.34-.62.51-.93.1-.18.2-.35.29-.53.07-.14.13-.27.2-.41.04-.07.07-.15.11-.22.05-.11.11-.22.16-.33.06-.11.12-.25.18-.37.03-.07.07-.14.1-.21.02-.03.04-.07.06-.1.12-.19.24-.39.37-.59l.14-.22c.05-.08.11-.16.16-.24.08-.11.15-.23.22-.34.01-.02.02-.03.03-.05.03-.05.07-.11.11-.16l.08-.12s.03-.05.05-.08c.13-.23.27-.45.41-.67l.09-.14c.4-.64.81-1.27,1.26-1.87.16-.22.33-.43.51-.63.53-.6,1.15-1.11,1.83-1.54.03-.03.08-.05.12-.09h0s.14-.1.14-.1c.05-.03.11-.07.15-.11.05-.03.09-.07.13-.11.04-.04.08-.09.11-.15.02-.03.03-.06.04-.09,0-.02,0-.04,0-.07-.01-.05-.04-.09-.08-.13-.02-.02-.05-.05-.08-.07-.05-.03-.1-.05-.15-.07h-.02c-.07-.03-.14-.04-.2-.03-.15,0-.3.01-.45.04-.09.01-.17.03-.26.06-.07.02-.13.04-.19.06h-.04c-.06.03-.11.05-.16.06-.05.01-.12.03-.17.04-.18.06-.35.12-.52.19-.17.07-.34.14-.5.22-.16.08-.33.16-.48.25-.15.09-.31.18-.46.27-.15.09-.3.19-.45.3-.15.1-.29.21-.44.32-.29.22-.56.45-.83.71-.65.61-1.25,1.28-1.8,1.99-.15.2-.3.4-.44.61-.03.04-.05.07-.08.11-.07.11-.14.22-.21.33-.12.19-.25.38-.37.57-.06.1-.13.2-.19.3-.06.1-.14.21-.2.31-.06.1-.14.23-.2.34-.01.02-.02.04-.03.06-.07.11-.13.22-.2.33l-.22.37c-.05.08-.1.17-.15.25-.04.07-.08.13-.12.2-.04.07-.07.13-.11.19l-.05.09-.49.85-.14.24c-.11.2-.23.39-.34.59v.02s-.04.05-.05.08l-.04.07c-.2.34-.39.68-.59,1.02-.04.07-.08.13-.12.2-.27.45-.55.9-.84,1.33-.34.49-.69.97-1.06,1.44-.18.23-.37.46-.57.69-.12.14-.26.27-.39.4-.08.09-.16.17-.24.26-.11.1-.22.2-.33.3-.13.12-.26.23-.4.33-.11.09-.22.17-.33.25-.11.08-.25.17-.38.26-.06.04-.12.07-.18.11-.25.15-.5.27-.77.38-.04.02-.09.04-.13.06-.04.02-.07.03-.11.04-.14.05-.28.09-.43.13-.04,0-.08.01-.11.02-.12.03-.24.05-.37.07-.05,0-.11,0-.16.01-.11.01-.22.02-.34.02h-.27s-.09,0-.14,0c-.14-.01-.29-.03-.44-.05-.15-.02-.29-.05-.44-.09-.11-.03-.22-.06-.34-.1-.03,0-.05-.02-.07-.03-.11-.04-.21-.1-.3-.19-.09-.08-.15-.18-.2-.29-.02-.04-.03-.08-.04-.12,0-.02,0-.04,0-.06,0-.03,0-.05,0-.08,0-.09.02-.17.07-.24.02-.04.05-.07.09-.1.08-.08.16-.16.23-.25.06-.08.12-.16.17-.25,0,0,0-.01.01-.02.09-.18.14-.37.16-.57,0-.1,0-.2,0-.3-.01-.1-.03-.2-.06-.29-.03-.09-.07-.18-.12-.27-.01-.02-.03-.04-.05-.07-.04-.06-.08-.12-.12-.17-.13-.14-.28-.24-.46-.3-.02,0-.03-.02-.05-.02-.06-.02-.12-.03-.19-.04h-.06s-.08,0-.12,0c-.04,0-.07,0-.11,0h-.06c-.05,0-.11.02-.16.03-.22.06-.43.17-.61.31-.09.07-.18.15-.26.24-.08.09-.16.19-.22.29-.13.2-.23.42-.28.65-.03.12-.05.25-.06.37-.01.12-.01.24,0,.36.01.12.03.24.06.35.03.12.07.24.12.35.15.34.37.63.65.87.06.05.13.09.19.14.04.03.07.06.11.08.07.05.14.09.2.13.19.13.39.24.6.33.28.12.58.2.88.25Z"/>
  <path class="cls-1" d="M45.14,20.7c-.23-.51-.64-.91-1.15-1.14-.53-.24-1.11-.35-1.7-.31-.66.03-1.32.19-1.93.45-.6.26-1.19.57-1.75.92h-.03c-.85.58-1.62,1.24-2.32,2-.14.15-.28.31-.42.47-.04.05-.08.09-.12.14-.22.27-.43.55-.62.82.1-.31.19-.65.28-1,.02-.08.03-.17.05-.26.03-.19.06-.38.07-.58,0-.12.02-.24.02-.37,0-.39-.06-.77-.18-1.14-.23-.51-.64-.91-1.15-1.14-.53-.24-1.11-.35-1.7-.31-.67.03-1.32.19-1.93.46-.6.26-1.19.57-1.75.92h-.03c-1.07.73-2.04,1.6-2.86,2.6-.11.14-.22.28-.33.42-.21.27-.39.55-.56.84-.11.18-.22.36-.31.54-.15.28-.28.57-.4.86-.08.19-.15.38-.22.57-.07.25-.13.51-.17.76,0,.06-.01.11-.02.16-.03.19-.04.38-.04.58,0,.09.01.17.02.26.02.17.05.33.09.5.07.26.17.51.3.74.06.11.11.21.19.32.37.43.85.74,1.39.91.55.19,1.14.25,1.72.18.58-.07,1.14-.22,1.67-.45.53-.23,1.04-.52,1.51-.86.47-.33.92-.7,1.33-1.1.28-.27.54-.55.79-.82.12-.13.24-.27.35-.4,0-.01.02-.02.02-.03.26-.35.51-.72.75-1.09-.04.12-.09.23-.12.35-.07.25-.13.51-.17.76-.01.08-.02.15-.03.23-.02.17-.03.34-.04.51v.06c.02.63.23,1.24.59,1.75.37.43.85.74,1.38.91.55.19,1.14.25,1.72.18.58-.07,1.15-.22,1.68-.45.53-.23,1.04-.52,1.52-.86.47-.33.92-.7,1.34-1.1.25-.24.49-.49.71-.73.14-.15.27-.29.39-.45l.03-.04c.07-.09.13-.18.19-.27.3-.42.59-.85.86-1.3.3-.5.56-1.03.79-1.57.05-.15.09-.3.14-.45.04-.13.07-.26.11-.39.02-.07.04-.13.05-.2.04-.16.07-.32.09-.48.04-.24.05-.48.05-.73,0-.39-.05-.78-.18-1.15ZM33.65,21.53c-.01.11-.04.21-.08.31-.17.62-.39,1.23-.65,1.83-.29.67-.62,1.32-1,1.94-.4.66-.83,1.29-1.31,1.89-.47.6-1,1.15-1.58,1.64-.05,0-.09.02-.13.05-.05.03-.07.05-.05.05-.26.15-.55.31-.88.47-.29.15-.62.19-.93.1-.29-.14-.49-.29-.58-.45-.1-.18-.15-.38-.14-.58,0-.09.02-.17.04-.26.03-.14.06-.28.09-.44v-.11c.13-.63.34-1.24.62-1.81.33-.68.71-1.34,1.14-1.96.46-.67.96-1.3,1.51-1.89.53-.58,1.12-1.11,1.75-1.58.24-.17.49-.32.75-.45h.02c.26-.16.57-.22.87-.19.1.02.2.07.28.14.08.07.14.15.18.25.08.22.12.44.12.67,0,.13,0,.26-.03.39h0ZM43.43,21.53c-.01.11-.04.21-.08.31-.17.62-.39,1.23-.65,1.83-.29.67-.62,1.32-1,1.95-.4.66-.83,1.29-1.31,1.89-.47.6-1,1.15-1.58,1.64-.05,0-.09.02-.13.05-.05.03-.07.05-.05.05-.26.15-.55.31-.88.47-.29.15-.62.19-.93.1-.29-.14-.49-.29-.58-.45-.1-.18-.15-.38-.14-.58,0-.09.02-.17.04-.26.03-.14.06-.28.09-.44v-.11c.13-.63.34-1.24.62-1.81.33-.68.71-1.34,1.14-1.96.46-.67.96-1.3,1.51-1.89.53-.58,1.12-1.11,1.75-1.58.24-.17.48-.32.74-.45h.02c.26-.16.57-.22.87-.19.08.02.16.05.22.09.07.05.12.11.17.17.02.04.04.08.06.12.08.22.12.44.12.67,0,.13,0,.26-.02.39h0Z"/>
  <path class="cls-1" d="M61.54,16.54s.06.05.09.07c.03.02.05.03.08.05.1.06.22.09.33.09.33,0,.66-.13,1.01-.4.08-.06.16-.13.24-.21.05-.05.1-.1.14-.15.03-.03.05-.06.07-.09.06-.07.11-.14.15-.21.05-.08.09-.16.12-.24.02-.06.04-.13.06-.19.03-.11.05-.22.05-.34v-.02c0-.16-.03-.32-.1-.47-.07-.15-.18-.26-.33-.34-.06-.03-.13-.05-.2-.06-.01,0-.02,0-.03,0-.01,0-.06,0-.08,0-.08,0-.16-.01-.24,0-.06,0-.12.02-.18.03-.06.01-.12.03-.17.05-.09.03-.17.07-.26.11-.1.05-.19.12-.27.19-.09.08-.18.16-.26.25-.16.18-.28.39-.38.61-.05.11-.08.22-.11.33-.02.1-.03.21-.03.32.03.19.09.37.2.53.03.05.07.09.1.12Z"/>
  <path class="cls-1" d="M70.96,23.88s-.02-.03-.04-.03c0,0,0,0-.01,0,0,0-.02,0-.03,0-.02,0-.04.01-.05.02l-.02.02s-.07.06-.09.09l-.17.19-.15.16c-.15.18-.32.39-.51.63-.17.22-.36.44-.55.67-.19.23-.4.47-.62.71-.43.49-.89.97-1.38,1.45-.15.15-.31.29-.46.42-.15.13-.3.25-.46.36-.18.14-.37.26-.55.37-.04.03-.08.05-.13.08-.21.12-.42.23-.65.33-.29.13-.6.22-.92.26-.07,0-.13.01-.2,0h-.05s-.09,0-.14-.01h-.06s-.08-.03-.12-.04l-.05-.02c-.06-.02-.11-.05-.16-.07-.06-.03-.11-.07-.15-.12-.05-.05-.09-.11-.12-.18-.08-.15-.12-.32-.14-.49-.02-.15-.02-.3-.02-.44,0-.15.03-.3.05-.45.03-.16.08-.33.13-.49.03-.09.06-.18.09-.27.02-.04.03-.08.04-.12.1-.23.18-.46.25-.7.03-.13.08-.25.14-.36.05-.1.11-.18.19-.26.07-.07.16-.13.25-.17.09-.04.19-.06.3-.06.21-.01.42-.04.62-.08.23-.06.44-.13.65-.2l.24-.08c.13-.04.27-.09.4-.14h.03c.15-.06.29-.12.44-.18.55-.25,1.08-.53,1.59-.85.13-.08.26-.17.38-.26.25-.18.48-.37.71-.58.11-.11.22-.22.32-.33.09-.09.17-.18.26-.28.09-.1.17-.21.25-.32.16-.22.3-.47.4-.72.05-.13.09-.26.12-.39.03-.13.05-.26.06-.4,0-.07,0-.13,0-.2-.02-.2-.09-.4-.2-.57-.08-.15-.19-.27-.33-.37-.14-.09-.3-.15-.47-.17-.02,0-.03,0-.05,0-.11-.01-.22-.02-.33-.02h-.1c-.08,0-.16,0-.24.01h-.09c-.1.02-.21.03-.3.05-.52.09-1.03.22-1.53.41-.12.05-.24.1-.36.15-.12.05-.24.11-.36.17-.16.08-.31.17-.46.26-.08.05-.15.09-.23.14-.07.05-.13.09-.2.13-.16.1-.33.2-.48.31-.04.02-.07.05-.11.08-.18.13-.36.26-.53.39-.21.16-.41.33-.6.51-.19.18-.38.36-.56.55-.2.21-.39.43-.57.65-.15.18-.29.37-.43.56-.14.19-.27.4-.4.6-.15.25-.3.5-.44.77-.09.17-.19.35-.27.53-.09.18-.17.37-.26.57-.07.17-.13.34-.19.51-.06.17-.11.35-.15.52-.24.31-.5.62-.77.92-.17.19-.34.37-.5.54-.17.17-.33.33-.49.47l-.05.04c-.15.13-.29.24-.44.35l-.06.04c-.06.04-.11.08-.17.11-.08.05-.15.09-.23.13-.06.03-.13.06-.19.08l-.05.02c-.05.02-.1.03-.15.04h-.03c-.05,0-.1.01-.15,0-.06,0-.13-.01-.19-.03-.02,0-.04-.01-.06-.02-.03-.01-.07-.03-.1-.05-.06-.05-.11-.1-.15-.16-.05-.08-.09-.17-.11-.27-.02-.09-.03-.18-.03-.28,0-.19.05-.39.12-.57.03-.09.07-.19.11-.28.04-.09.09-.18.13-.27.05-.09.09-.17.14-.24.05-.07.09-.14.13-.2.24-.41.5-.84.78-1.27.07-.11.14-.22.21-.34.07-.11.13-.21.19-.31.06-.1.11-.19.16-.28.07-.12.14-.24.21-.36.14-.24.28-.47.43-.7.15-.22.29-.45.43-.67.35-.53.68-1.08,1-1.64.08-.14.16-.28.23-.44.11-.21.21-.43.31-.66.11-.25.22-.51.32-.78.02-.05.03-.1.03-.15,0-.05,0-.1,0-.15,0-.09-.02-.19-.04-.27l-.03-.05v-.05c-.08.02-.16.03-.25.03h-.08c-.08,0-.15,0-.23,0-.06,0-.11,0-.16,0-.13,0-.26,0-.37,0-.21,0-.47,0-.78.03-.26,0-.51.06-.75.16-.06.07-.1.15-.12.23-.02.1-.05.19-.09.28h0s0,.07-.01.1c0,.04-.01.07-.01.11-.05.17-.1.34-.14.51-.02.09-.06.18-.09.26-.04.1-.1.2-.15.29l-.33.55-.25.43-.15.26c-.24.41-.48.82-.73,1.22-.17.25-.34.51-.51.76-.17.26-.33.52-.49.79-.32.53-.63,1.1-.92,1.71-.07.15-.14.33-.21.5-.07.17-.14.37-.22.57-.11.29-.18.6-.21.9,0,.1-.01.2-.01.3,0,.26.05.52.15.76.03.08.07.15.11.22.03.07.07.13.11.19.04.06.08.11.13.16l.02.02c.08.08.18.15.28.19.22.09.46.14.7.14.49,0,.98-.07,1.45-.23.15-.05.29-.11.44-.18.17-.09.34-.18.51-.28l.17-.1c.12-.08.23-.16.35-.24.06-.05.13-.09.19-.14.13-.1.25-.21.37-.32.21-.2.42-.41.61-.63.19-.22.38-.46.56-.71,0,.1-.01.2-.01.3,0,.1,0,.21.02.31.04.3.12.59.25.86.05.1.11.2.17.29.17.26.4.47.67.62.09.05.18.09.27.13.05.02.1.03.15.05.05.02.12.04.18.06.18.04.36.07.54.08h.26c.14,0,.27-.01.41-.03h.08c.17-.03.33-.07.5-.11.2-.05.4-.12.6-.2.18-.07.36-.16.53-.26.06-.03.12-.07.18-.11.06-.04.13-.09.21-.13.07-.05.15-.11.23-.17s.16-.12.25-.19c.09-.07.2-.16.31-.25l.14-.11c.23-.19.46-.38.7-.6.41-.36.83-.76,1.26-1.19s.82-.85,1.2-1.25c.33-.38.64-.77.93-1.18.12-.17.23-.34.33-.51.08-.14.14-.28.19-.43.02-.06.02-.12.02-.18,0-.05-.02-.1-.04-.14ZM64.24,24.79c.05-.09.11-.17.16-.25.33-.52.67-1.02,1.01-1.52h0c.17-.26.36-.49.55-.73.03-.04.06-.08.09-.12.23-.27.47-.54.72-.8.03-.03.11-.12.23-.25.12-.13.26-.26.41-.4.16-.14.33-.28.5-.4.11-.08.22-.15.34-.21.06-.03.11-.06.16-.08.06-.02.13-.04.19-.05h.1s.06,0,.1.02c.03,0,.05.02.07.04.02.02.04.04.05.07.02.03.03.06.04.1.01.04.02.08.02.13,0,.19-.02.38-.09.56-.03.07-.06.14-.09.21-.07.14-.13.27-.19.39-.06.12-.12.23-.17.32-.16.24-.33.47-.53.69-.2.22-.41.42-.63.61-.22.2-.45.39-.69.58-.13.1-.26.19-.39.29s-.22.17-.34.25c-.32.22-.67.38-1.05.47-.19.05-.39.08-.6.1h0Z"/>
  <path class="cls-1" d="M69.35,44.99l-5.43-.79-1.7,8.22c.02.09.02.18,0,.27-.13.54-.87.72-1.41.82-.42.07-1.05.15-1.77.25-1.5.2-4.74.62-5.75,1.09l13.23,3.11-.26-7.27c0-.06.01-.12.04-.17l3.04-5.54Z"/>
  <path class="cls-1" d="M58.95,53.11c.71-.09,1.33-.17,1.75-.24.17-.03.33-.07.5-.12-.93-.29-3.04-.92-6.11-1.58l-.33-.07-.34-.07-.27-.06-.33,1.2-.42,1.5-.14.49c.09-.04.2-.07.31-.11,1.05-.32,2.81-.6,5.39-.94Z"/>
  <path class="cls-1" d="M10.48,53.04c-.55-.09-1.28-.28-1.41-.82v-.04s-.07-.09-.09-.14l-2.24-8.23-4.8.69,3.05,5.53c.03.05.04.11.04.17l-.26,7.26,13.24-3.11c-1.01-.46-4.25-.89-5.76-1.09-.72-.09-1.35-.17-1.77-.25Z"/>
  <path class="cls-1" d="M17.47,51.7l-.33-1.16-.26.05-.34.06-.34.06c-2.1.4-4.22.88-6.39,1.44.11.07.33.15.77.23.41.07,1.03.15,1.75.24,2.58.34,4.33.61,5.38.95.11.03.22.07.31.11l-.14-.49-.41-1.5Z"/>
  <path class="cls-1" d="M20.97,45.44l-.09-.76c-.05-.4-.22-.49-.56-.45l-.24.03.05.47.21,1.78.24-.03c.34-.04.49-.17.44-.57l-.05-.46Z"/>
  <path class="cls-1" d="M40.73,40.88h-.29s-.1,1.91-.1,1.91h.23c.42.03.52-.15.54-.38l.06-1.18c0-.25-.17-.33-.44-.34Z"/>
  <path class="cls-1" d="M20.64,42.92l-.12-.98c-.04-.37-.18-.47-.49-.44l-.27.03.23,1.95.27-.03c.31-.03.42-.16.38-.53Z"/>
  <path class="cls-1" d="M46.53,41.17c-.25-.02-.38.04-.41.37l-.41,4.39c-.03.33.09.41.34.44.25.02.37-.04.4-.37l.41-4.4c.03-.33-.09-.41-.33-.43Z"/>
  <path class="cls-1" d="M54,50.28l.33.06.41.09.33.07.33.07c2.32.5,4.09.98,5.2,1.31.43.13.76.23.99.31l.02-.09.07-.34,1.58-7.64.07-.33.07-.33.44-2.13c-1.26-.36-2.5-.7-3.74-1.01-.33-.08-.65-.16-.98-.24-1.29-.31-2.57-.59-3.84-.84-3.24-.65-6.41-1.12-9.46-1.44-.09.05-.17.1-.27.15-1.43.72-3,1.1-4.6,1.11-.14,0-.29,0-.43,0h-.03c-.26-.02-.55-.05-.86-.1-.35-.05-.69-.15-1.01-.28-.35-.15-.68-.35-.96-.61-.25-.23-.45-.5-.59-.81-7.23-.18-14.47.38-21.59,1.65-1.44.26-2.73.53-3.85.78-.35.08-.68.16-.99.23-2.03.49-3.38.89-3.9,1.06-.02,0-.04.02-.05.05-.01.02-.01.05,0,.07l.55,2.01.09.32.09.32,2.08,7.64.05.2.45-.11c.38-.1.76-.2,1.14-.29,1.61-.4,3.2-.74,4.77-1.04.11-.02.23-.04.34-.07l.34-.06.41-.07.33-.06.33-.06c.33-.06.65-.11.98-.16.46-.07.92-.14,1.37-.21,2.15-.32,4.26-.55,6.32-.72,2.81-.23,5.53-.33,8.11-.33,3.56,0,6.87.19,9.88.48,2.29.22,4.41.51,6.32.81.47.07.93.15,1.38.23.59.1,1.15.21,1.69.31l.33.06ZM22.16,46.35c-.15.45-.53.79-1.23.87l-1.69.2-.48-4.05-.29-2.43,1.7-.2c.97-.11,1.47.31,1.55,1l.12,1.03c.06.57-.33.79-1.01.99v.02c.78.03,1.18.15,1.27.87l.12,1.03c.03.22,0,.45-.06.66h0ZM24.69,46.85l-.49-6.5,1.21-.09.49,6.5-1.21.09ZM29.81,46.67c-.74.03-1.59-.19-1.62-1.04l-.06-1.5,1.21-.05.05,1.42c.01.33.14.4.39.39.25,0,.36-.09.35-.42l-.03-.69c-.03-.92-2.02-1.74-2.06-2.8l-.03-.93c-.03-.85.79-1.13,1.54-1.16.74-.03,1.6.19,1.64,1.04l.05,1.37-1.21.04-.05-1.29c-.01-.33-.14-.4-.38-.39s-.38.09-.36.42l.03.81c.02.47,2.03,1.8,2.05,2.46l.04,1.15c.03.85-.8,1.13-1.56,1.16h0ZM36.88,40.81h-1.05s-.04,5.66-.04,5.66h-1.21s.04-5.68.04-5.68h-1.06s0-.86,0-.86l3.33.02v.85ZM42.33,42.23c-.02.48-.22.88-1.25.92v.02c.54.08,1.1.26,1.11.85.03.87-.09,1.78.06,2.69l-1.21-.06c-.17-.76-.06-1.74-.02-2.5.02-.39-.15-.56-.72-.57l-.15,3.02-1.21-.06.33-6.51,1.6.08c.97.05,1.55.35,1.51,1.19l-.05.92ZM47.64,46.2c-.08.85-.93,1.02-1.69.94s-1.55-.39-1.47-1.24l.43-4.56c.08-.85.94-1.02,1.68-.95.74.07,1.56.4,1.48,1.24l-.43,4.56ZM52.67,42.09l-.12.88-.65,4.74-1.2-.16.43-3.12.34-2.5-1.05-.15.12-.84,3.3.45v.03l-.11.82-.48-.07-.57-.08Z"/>
</svg>