<?xml version="1.0" encoding="UTF-8"?>
<svg id="Livello_1" xmlns="http://www.w3.org/2000/svg" version="1.1" viewBox="0 0 32 32">
  <defs>
    <style>
      .st0 { fill: #eecf9d; }
      .st1 { fill: #191917; }
    </style>
  </defs>
  <circle class="st0" cx="16" cy="16" r="16"/>
  <g>
    <path class="st1" d="M10.24,8.49c.05,0,.1-.02.17-.02.02,0,.04,0,.06,0h0s.05,0,.07,0c1.5-1.33,3.44-2.07,5.44-2.07,3.24,0,6.04,1.88,7.38,4.61,0-.03,0-.06.02-.09.01-.06.03-.12.06-.18.02-.04.04-.08.06-.13-1.43-2.68-4.26-4.51-7.51-4.51-2.23,0-4.38.88-5.97,2.45.04,0,.08-.02.13-.02.03,0,.06,0,.09-.02h0Z"/>
    <path class="st1" d="M24.39,16.01h-.04c-.08,0-.17-.02-.25-.04h-.02c-.13.78-.38,1.55-.73,2.26.1.02.2.05.3.07.35-.73.6-1.5.73-2.3h0Z"/>
    <path class="st1" d="M7.79,15.71s-.09.03-.13.05c-.03.01-.07.02-.1.03.12.82.35,1.63.7,2.38.1-.02.2-.05.3-.07-.36-.77-.6-1.58-.71-2.42-.02,0-.04.02-.06.02h0Z"/>
    <path class="st1" d="M15.99,22.82c-1.61,0-3.18-.47-4.52-1.36-.14.02-.29.04-.44.06,1.42,1.03,3.13,1.58,4.89,1.6s3.47-.52,4.92-1.52c-.14-.02-.29-.05-.44-.07-1.32.84-2.85,1.29-4.41,1.29h0Z"/>
    <path class="st1" d="M16.73,17.36s.02.06.04.08c.02.04.05.08.08.11h.01c.06.07.13.11.21.14.08.03.16.06.24.07.09.01.17.02.24.03h.21s.07,0,.11,0c.02,0,.04,0,.06,0,.04,0,.08,0,.11-.01.02,0,.04,0,.06,0,.06,0,.11-.02.17-.03.09-.02.18-.05.27-.07.08-.02.16-.05.23-.08.06-.02.12-.05.18-.08.22-.12.43-.26.62-.43h0s.07-.07.1-.1c.03-.03.06-.06.09-.09.11-.12.22-.25.32-.38.15-.21.3-.42.43-.63.14-.22.27-.43.4-.65.11-.18.22-.35.33-.53.22-.34.42-.68.63-1.02.26-.44.53-.88.78-1.33.02-.04.04-.07.06-.11.02-.04.04-.06.05-.09l.02-.04h-.51c-.05,0-.1,0-.16,0-.04,0-.09.01-.13.03-.07.03-.12.08-.16.15-.02.04-.05.07-.08.11-.04-.1-.12-.19-.22-.25-.09-.05-.19-.07-.3-.08h-.04s-.09,0-.14,0h-.01s-.1.02-.14.03c-.11.03-.21.07-.31.11-.24.1-.46.24-.67.41-.2.17-.38.35-.55.54h0c-.05.06-.1.12-.14.18-.11.13-.21.27-.31.41-.14.21-.24.43-.31.66,0,.02,0,.05-.01.07,0,.02,0,.05-.01.07,0,.02,0,.05,0,.08s0,.05,0,.08v.02s0,.1,0,.14c0,.05,0,.09.01.14.02.1.05.19.1.28.05.09.12.17.21.22.02.01.05.02.08.03h.02s.04.02.06.02h.02s.04,0,.06,0h.02s.05,0,.08,0c.12-.02.23-.05.34-.11.11-.06.21-.13.31-.2.1-.08.19-.16.27-.23-.15.29-.31.57-.48.85-.17.28-.35.55-.54.81-.03.04-.06.07-.09.11-.02.03-.05.06-.07.09-.02.03-.06.07-.08.1,0,0-.01.02-.02.02-.09.1-.19.2-.3.29-.07.06-.14.1-.22.15-.04.02-.08.05-.12.06-.02,0-.03.01-.05.02-.1.04-.2.07-.31.08h-.04s-.1.02-.15.02c-.06,0-.11,0-.16-.02,0,0-.02,0-.03-.01-.04-.02-.08-.04-.11-.06-.02-.02-.03-.03-.04-.05-.02-.03-.02-.06-.03-.09h0s0-.08.02-.11c.02-.03.03-.07.06-.1.02-.03.04-.07.04-.1,0-.02,0-.04,0-.06,0-.02,0-.05-.02-.07,0-.02-.02-.03-.03-.05-.02-.03-.04-.06-.07-.07s-.06-.03-.1-.04c-.01,0-.02,0-.04,0h-.05s-.04,0-.06,0c-.06,0-.13.03-.18.07-.02,0-.03.02-.04.03-.07.05-.11.12-.14.2,0,.02-.01.05-.02.08,0,.07,0,.14.02.21v.02h0ZM20.1,14.84c-.07.07-.15.13-.24.18-.02,0-.03.02-.05.03-.07.03-.15.06-.23.06-.03,0-.06,0-.09,0h-.03c-.1,0-.17-.05-.18-.13-.01-.09,0-.18.02-.27.03-.1.07-.2.12-.3.05-.1.08-.17.1-.21.15-.27.32-.54.5-.8.18-.26.39-.5.61-.72.04-.04.09-.09.15-.14s.11-.1.18-.14h.01c.06-.05.12-.08.18-.11.05-.02.11-.04.17-.04h.03s.05,0,.07,0,.04.02.06.04c0,0,0,0,0,0,.02.04.04.08.04.12,0,.04,0,.08,0,.12v.04s-.02.09-.03.14c-.04.14-.1.28-.16.42-.07.13-.14.26-.23.38-.09.13-.17.25-.26.37-.05.06-.09.13-.14.19-.04.06-.08.11-.12.17-.06.09-.13.18-.21.28,0,0,0,0,0,0-.08.1-.16.19-.26.28h-.01Z"/>
    <path class="st1" d="M6.58,12.13v.02c0,.11.03.21.06.31.02.07.05.14.09.21.02.03.04.06.06.09,0,0,.02.02.02.03.02.02.03.04.05.06h0s.06.07.09.1c.03.02.06.04.08.06.04.03.08.05.13.07.04.02.07.03.11.04.04.01.09.02.14.02.02,0,.03,0,.04,0,.03,0,.06,0,.1,0h.1s.07,0,.11,0c.06,0,.11-.02.17-.03.06-.02.13-.04.19-.06.04-.02.07-.03.11-.05h0l.03-.02c.07-.03.13-.07.19-.1.04-.03.08-.06.13-.08.02-.02.05-.03.07-.05l.02-.02h0l.1-.08h0c.06-.05.11-.1.17-.15.02-.02.03-.03.04-.05.02-.02.03-.04.05-.06s.03-.04.04-.06c0-.01.02-.03.02-.04h0s0-.04,0-.06c0-.02,0-.03-.02-.05,0,0-.02-.02-.02-.02h0s-.03-.01-.05,0c-.03,0-.06.02-.09.04h0s-.06.05-.09.08h-.01s-.03.04-.05.06l-.04.04s-.04.03-.06.05l-.03.02-.04.03s-.06.05-.1.07c-.03.02-.06.03-.09.04-.04.02-.08.03-.11.04-.04.01-.08.02-.12.03h-.02s-.06,0-.1.01h-.14s-.08,0-.12-.02c-.03,0-.06-.01-.08-.02-.01,0-.02,0-.03,0-.02,0-.04-.01-.06-.02-.01,0-.02-.01-.04-.02,0,0,0,0-.02,0-.02,0-.03-.02-.05-.03-.02-.01-.03-.03-.05-.04-.02-.02-.05-.05-.06-.07-.04-.05-.06-.1-.08-.16,0,0,0-.02,0-.03,0-.02,0-.04-.01-.06,0-.02,0-.04,0-.06,0-.04,0-.08-.01-.12v-.06s0-.08,0-.12c0-.05.02-.1.02-.15.01-.07.03-.14.05-.2.01-.04.02-.08.04-.11.03-.08.06-.15.09-.22.03-.07.07-.14.12-.22.04-.06.08-.12.12-.18,0-.01.02-.02.02-.03,0,0,0,0,.01-.02,0-.01.02-.02.03-.04.02-.03.05-.06.07-.1.01-.01.02-.03.03-.04.04-.05.09-.1.14-.14h0c.06-.07.12-.13.18-.18s.13-.1.19-.16c0,0,0,0,.01,0l.04-.03.02-.02s.05-.04.07-.05c.03-.02.06-.05.1-.07l.04-.02c.07-.05.14-.09.22-.13.02,0,.03-.02.05-.03.03-.02.07-.03.1-.05l.04-.02.04-.02s.03-.02.05-.02c.16-.08.32-.14.49-.2.02,0,.03-.01.05-.02.18-.06.37-.11.56-.14.15-.03.32-.05.49-.06.03,0,.06,0,.1,0,.05,0,.1,0,.15,0h.02c.08,0,.16,0,.24.01.07,0,.14.02.21.03.02,0,.03,0,.05,0,.04,0,.09.02.13.03s.08.02.11.03.08.03.12.04h.01s.01.01.01.01c.07.03.14.06.2.1.04.02.07.05.1.07,0,0,0,0,0,0,.04.03.08.06.12.1.05.05.1.11.14.17.01.02.02.04.04.06,0,.02.02.03.02.04.02.04.03.07.05.11v.04s.01.01.02.02c.03.1.04.2.04.3,0,.04,0,.09,0,.13,0,.04-.01.08-.02.12,0,.02,0,.04,0,.06-.01.06-.03.12-.05.18-.02.05-.04.1-.06.15-.01.03-.02.06-.04.09-.04.07-.08.14-.13.22-.05.08-.11.15-.17.22-.05.05-.1.1-.15.15-.02.02-.03.03-.05.04-.03.02-.06.05-.08.07,0,0-.02.01-.02.02-.11.08-.23.15-.36.21-.08.04-.16.06-.24.09-.01,0-.02,0-.04.01-.01,0-.02,0-.03,0-.09.02-.18.03-.26.04h0s-.06,0-.11,0h-.05s-.06,0-.09,0h0s-.09.02-.13.04c0,0,0,0,0,0-.01,0-.02.02-.03.02s-.02.02-.02.03c0,0,0,.02,0,.03v.03s0,.02.02.03.02.02.03.02h0s.03.02.05.02.03,0,.05.01c0,0,.01,0,.02,0,.02,0,.04,0,.06.01h.03s.03,0,.05,0c.02,0,.04,0,.06,0h0s.03,0,.03,0c.02,0,.05.01.07.02.02,0,.04.01.06.02.13.04.24.11.33.2.04.05.08.1.12.15.04.06.06.12.09.18.02.04.02.08.03.13h0s0,.03,0,.05c.02.09.02.18.02.28v.07s0,.09-.02.13c0,0,0,.02,0,.02-.01.07-.03.15-.05.22-.02.08-.05.16-.09.24-.02.04-.04.08-.06.12-.02.04-.04.07-.06.11-.04.07-.09.14-.14.21,0,0,0,0,0,0-.1.13-.22.25-.35.35-.08.06-.17.12-.26.17-.02,0-.04.02-.06.03-.04.02-.08.03-.12.05-.02,0-.04.02-.06.02-.05.02-.1.03-.15.04,0,0-.02,0-.02,0s-.02,0-.02,0c-.08.01-.16.02-.24.02s-.16,0-.23-.03c0,0-.02,0-.02,0-.08-.03-.15-.07-.22-.12,0,0,0,0-.01-.01-.03-.03-.06-.06-.08-.09-.01-.02-.02-.03-.04-.05s-.02-.03-.03-.05-.02-.02-.03-.04c-.02-.02-.04-.05-.07-.07-.01-.01-.03-.03-.04-.04-.01,0-.02-.02-.04-.02-.03-.02-.06-.02-.09-.02,0,0-.01,0-.02,0,0,0-.02,0-.02,0h0s-.02.01-.03.02c0,0-.02.02-.02.03,0,.02,0,.03,0,.05,0,.02,0,.05,0,.07h0s.02.07.03.1c0,0,0,0,0,.02.01.02.03.05.04.07,0,.02.02.03.03.04.02.02.03.03.05.05,0,0,0,0,0,0,.02.01.03.02.04.03s.03.02.04.03c.03.02.06.04.09.06h0c.11.07.23.13.36.18.05.02.1.04.16.05.02,0,.03,0,.05.01.05.01.1.02.14.03.02,0,.03,0,.05,0,.03,0,.06,0,.1.01.02,0,.04,0,.06,0,.03,0,.06,0,.09,0h.17c.13,0,.25-.02.37-.04.04,0,.08-.02.13-.03.12-.03.25-.07.36-.12.04-.02.08-.03.11-.05.12-.06.23-.13.34-.21.03-.02.06-.04.08-.07.06-.06.12-.12.17-.18.04-.05.08-.11.12-.17,0-.01.02-.03.02-.04.02-.04.04-.07.06-.11.01-.03.02-.06.03-.09.04-.09.07-.18.09-.28,0-.03.01-.06.02-.09,0-.03,0-.06.01-.09,0-.01,0-.02,0-.03,0,0,0-.02,0-.03,0-.04,0-.08,0-.13v-.13s0-.06,0-.09v-.04s-.01-.08-.02-.12c-.02-.08-.04-.17-.06-.25-.02-.04-.03-.08-.05-.12-.03-.07-.07-.14-.11-.21h0s-.05-.08-.07-.11c-.02-.02-.04-.04-.07-.06-.07-.06-.14-.13-.22-.19-.02-.02-.05-.04-.08-.06-.05-.04-.11-.07-.17-.09-.03-.01-.06-.02-.09-.03.14,0,.27-.02.4-.06.05-.01.09-.03.14-.04.09-.03.18-.07.26-.1.07-.03.13-.06.19-.09.02,0,.03-.02.05-.02.03-.02.06-.03.09-.05.04-.02.08-.05.12-.07.03-.02.07-.05.1-.07s.06-.05.1-.08c.12-.1.23-.22.32-.36.09-.13.15-.28.19-.43,0-.04.02-.08.02-.12s.01-.08.01-.12,0-.08,0-.12c0-.04,0-.08,0-.13-.01-.12-.04-.24-.07-.35-.03-.1-.08-.18-.13-.27-.02-.04-.05-.08-.08-.11-.03-.04-.06-.07-.09-.1-.05-.06-.11-.11-.17-.16-.13-.11-.28-.21-.44-.28-.05-.02-.11-.05-.16-.07s-.11-.04-.16-.06c-.06-.02-.11-.03-.17-.05s-.11-.03-.17-.05h0c-.09-.02-.17-.03-.26-.05s-.18-.02-.26-.03c-.1,0-.19,0-.28,0-.08,0-.15,0-.23,0-.02,0-.04,0-.06,0-.06,0-.13,0-.19.02-.02,0-.05,0-.07,0-.08,0-.16.02-.24.03-.06,0-.11.02-.17.03-.18.04-.36.08-.54.14-.03,0-.05.02-.08.02-.09.03-.17.06-.26.09-.11.04-.22.09-.33.14-.07.03-.13.06-.19.09-.06.03-.13.06-.19.1-.03.02-.05.03-.08.05-.05.03-.1.06-.16.09h-.02s-.05.05-.07.06c-.05.03-.09.06-.14.09-.07.05-.14.1-.21.15-.05.04-.1.08-.14.11-.02.02-.05.04-.07.06-.06.06-.12.11-.18.17-.04.04-.07.07-.11.11-.02.03-.05.05-.08.08-.04.05-.09.1-.13.15-.12.16-.22.33-.31.5,0,.01,0,.02-.02.04-.02.05-.05.11-.06.16-.02.07-.05.14-.06.22,0,.04-.02.08-.02.11-.01.07-.02.15-.03.23,0,.04,0,.08,0,.11v.06s0,.03,0,.05Z"/>
    <path class="st1" d="M5.95,15.58c.06,0,.11.02.17.02h.05s.09,0,.13,0h.05c.06,0,.12,0,.18,0,.08,0,.15-.02.23-.03.02,0,.04,0,.07,0,.05,0,.09-.02.14-.03.05-.01.1-.02.16-.04s.1-.03.14-.04c.06-.02.11-.03.16-.05.03,0,.05-.02.08-.03,0,0,0,0,.01,0h0s.08-.03.12-.05c.06-.02.11-.05.16-.07.03-.01.06-.02.09-.04.06-.02.11-.05.16-.08l.03-.02c.09-.05.18-.1.27-.16,0,0,0,0,.01,0,.06-.04.11-.08.16-.12,0,0,.02-.01.03-.02h0s.06-.06.09-.09.07-.06.1-.09c.01-.01.02-.02.04-.03.04-.03.07-.07.1-.1.02-.02.03-.03.04-.04.03-.03.06-.07.1-.1h0s.05-.07.08-.1c.05-.06.1-.11.15-.18l.02-.02c.17-.21.32-.42.46-.65.05-.07.09-.15.14-.23,0,0,0,0,0,0,.06-.1.1-.19.16-.29.03-.06.06-.11.09-.16.02-.04.04-.08.06-.13.01-.02.02-.05.03-.07.02-.03.03-.07.05-.1.02-.03.04-.08.06-.11,0-.02.02-.04.03-.06,0,0,.01-.02.02-.03.04-.06.07-.12.11-.18l.04-.07s.03-.05.05-.07c.02-.03.05-.07.07-.1,0,0,0,0,0-.02,0-.02.02-.03.03-.05l.02-.04s0-.02.02-.02c.04-.07.08-.14.13-.21l.03-.04c.12-.2.25-.39.39-.58.05-.07.1-.13.16-.19.16-.18.35-.34.56-.47,0,0,.02-.02.04-.03h0l.04-.03s.03-.02.05-.03c.02,0,.03-.02.04-.03.01-.01.02-.03.03-.05,0,0,0-.02.01-.03v-.02s-.01-.03-.02-.04c0,0-.02-.02-.02-.02-.02,0-.03-.02-.05-.02h0s-.04-.01-.06,0c-.05,0-.09,0-.14.01-.03,0-.05,0-.08.02-.02,0-.04.01-.06.02h-.01s-.03.02-.05.02-.04,0-.05.01c-.06.02-.11.04-.16.06s-.1.04-.15.07-.1.05-.15.08-.1.06-.14.08-.09.06-.14.09c-.05.03-.09.06-.14.1-.09.07-.17.14-.26.22-.2.19-.38.39-.55.61-.05.06-.09.12-.14.19,0,.01-.02.02-.02.03-.02.03-.04.07-.06.1-.04.06-.08.12-.11.18-.02.03-.04.06-.06.09-.02.03-.04.06-.06.1-.02.03-.04.07-.06.1v.02s-.05.07-.07.1l-.07.11s-.03.05-.05.08c-.01.02-.02.04-.04.06-.01.02-.02.04-.03.06l-.02.03-.15.26-.04.07c-.03.06-.07.12-.1.18h0s-.01.02-.02.03v.02c-.07.1-.13.21-.19.31-.01.02-.02.04-.04.06-.08.14-.17.28-.26.41-.1.15-.21.3-.33.44-.06.07-.11.14-.18.21-.04.04-.08.08-.12.12-.02.03-.05.05-.07.08-.03.03-.07.06-.1.09-.04.04-.08.07-.12.1-.03.03-.07.05-.1.08s-.08.05-.12.08c-.02.01-.04.02-.06.03-.08.05-.15.08-.24.12-.01,0-.03.01-.04.02-.01,0-.02,0-.03.01-.04.02-.09.03-.13.04-.01,0-.02,0-.03,0-.04,0-.07.02-.11.02-.02,0-.03,0-.05,0-.03,0-.07,0-.1,0h-.13s-.09,0-.14-.02c-.05,0-.09-.02-.14-.03-.03,0-.07-.02-.1-.03,0,0-.02,0-.02,0-.03-.01-.06-.03-.09-.06-.03-.02-.05-.06-.06-.09,0-.01,0-.02-.01-.04v-.04s0-.05.02-.07c0-.01.02-.02.03-.03.02-.02.05-.05.07-.08.02-.02.04-.05.05-.08,0,0,0,0,0,0,.03-.06.04-.11.05-.18v-.09s0-.06-.02-.09-.02-.06-.04-.08c0,0,0-.01-.02-.02-.01-.02-.02-.04-.04-.05-.04-.04-.09-.07-.14-.09,0,0,0,0-.02,0-.02,0-.04,0-.06-.01h-.11s-.03,0-.05,0c-.07.02-.13.05-.19.1-.03.02-.06.05-.08.07s-.05.06-.07.09c-.04.06-.07.13-.09.2,0,.04-.02.08-.02.11,0,.04,0,.07,0,.11s0,.07.02.11c0,.04.02.07.04.11.05.1.11.19.2.27.02.02.04.03.06.04.01,0,.02.02.03.02.02.02.04.03.06.04.06.04.12.07.18.1.09.04.18.06.27.08h.01Z"/>
    <path class="st1" d="M18.96,12.45c-.07-.16-.2-.28-.35-.35-.16-.07-.34-.11-.52-.1-.2,0-.41.06-.59.14-.18.08-.37.18-.54.28h0c-.26.18-.5.38-.71.62-.04.05-.09.1-.13.14-.01.02-.02.03-.04.04-.07.08-.13.17-.19.25.03-.1.06-.2.09-.31,0-.02,0-.05.02-.08,0-.06.02-.12.02-.18,0-.04,0-.07,0-.11,0-.12-.02-.24-.06-.35-.07-.16-.2-.28-.35-.35-.16-.07-.34-.11-.52-.1-.21,0-.41.06-.59.14-.18.08-.37.18-.54.28h0c-.33.22-.63.49-.88.8-.03.04-.07.09-.1.13-.06.08-.12.17-.17.26-.03.06-.07.11-.1.17-.05.09-.09.18-.12.26-.02.06-.05.12-.07.18-.02.08-.04.16-.05.23,0,.02,0,.03,0,.05,0,.06-.01.12-.01.18,0,.03,0,.05,0,.08,0,.05.02.1.03.15.02.08.05.16.09.23.02.03.03.06.06.1.11.13.26.23.43.28.17.06.35.08.53.06s.35-.07.51-.14c.16-.07.32-.16.46-.26.14-.1.28-.22.41-.34.09-.08.17-.17.24-.25.04-.04.07-.08.11-.12,0,0,0,0,0,0,.08-.11.16-.22.23-.34-.01.04-.03.07-.04.11-.02.08-.04.16-.05.23,0,.02,0,.05,0,.07,0,.05,0,.1-.01.16v.02c0,.19.07.38.18.54.11.13.26.23.42.28.17.06.35.08.53.06s.35-.07.52-.14c.16-.07.32-.16.47-.26.14-.1.28-.22.41-.34.08-.07.15-.15.22-.22.04-.05.08-.09.12-.14h0s.04-.07.06-.1c.09-.13.18-.26.26-.4.09-.15.17-.32.24-.48.02-.05.03-.09.04-.14.01-.04.02-.08.03-.12,0-.02.01-.04.02-.06.01-.05.02-.1.03-.15.01-.07.02-.15.02-.22,0-.12-.02-.24-.06-.35h.01ZM15.43,12.71s-.01.06-.02.1c-.05.19-.12.38-.2.56-.09.21-.19.41-.31.6-.12.2-.26.4-.4.58-.14.18-.31.35-.49.5-.02,0-.03,0-.04.02-.02,0-.02.02-.02.02-.08.05-.17.1-.27.14-.09.05-.19.06-.29.03-.09-.04-.15-.09-.18-.14-.03-.06-.05-.12-.04-.18,0-.03,0-.05.01-.08,0-.04.02-.09.03-.14v-.03c.04-.19.1-.38.19-.56.1-.21.22-.41.35-.6.14-.21.3-.4.46-.58.16-.18.34-.34.54-.49.07-.05.15-.1.23-.14h0c.08-.05.18-.07.27-.06.03,0,.06.02.09.04.02.02.04.05.06.08.02.07.04.14.04.21,0,.04,0,.08,0,.12h0ZM18.44,12.71s-.01.06-.02.1c-.05.19-.12.38-.2.56-.09.21-.19.41-.31.6-.12.2-.26.4-.4.58-.14.18-.31.35-.49.5-.02,0-.03,0-.04.02-.02,0-.02.02-.02.02-.08.05-.17.1-.27.14-.09.05-.19.06-.29.03-.09-.04-.15-.09-.18-.14-.03-.06-.05-.12-.04-.18,0-.03,0-.05.01-.08,0-.04.02-.09.03-.14v-.03c.04-.19.1-.38.19-.56.1-.21.22-.41.35-.6.14-.21.3-.4.46-.58.16-.18.34-.34.54-.49.07-.05.15-.1.23-.14h0c.08-.05.18-.07.27-.06.02,0,.05.02.07.03.02.02.04.03.05.05,0,.01.01.02.02.04.02.07.04.14.04.21,0,.04,0,.08,0,.12h0Z"/>
    <path class="st1" d="M24.01,11.17s.02.02.03.02.02,0,.02.02c.03.02.07.03.1.03.1,0,.2-.04.31-.12.02-.02.05-.04.07-.06.02-.02.03-.03.04-.05,0,0,.02-.02.02-.03.02-.02.03-.04.05-.06.02-.02.03-.05.04-.07,0-.02.01-.04.02-.06,0-.03.02-.07.02-.1h0c0-.06,0-.1-.03-.15-.02-.05-.06-.08-.1-.1-.02,0-.04-.02-.06-.02h-.03s-.05,0-.07,0c-.02,0-.04,0-.06,0-.02,0-.04,0-.05.02-.03,0-.05.02-.08.03-.03.02-.06.04-.08.06-.03.02-.06.05-.08.08-.05.06-.09.12-.12.19-.02.03-.02.07-.03.1,0,.03,0,.06,0,.1,0,.06.03.11.06.16,0,.02.02.03.03.04h0Z"/>
    <path class="st1" d="M26.91,13.43s0,0-.01,0h-.01s-.01,0-.02,0h0s-.02.02-.03.03l-.05.06-.05.05c-.05.06-.1.12-.16.19-.05.07-.11.14-.17.21s-.12.14-.19.22c-.13.15-.27.3-.42.45-.05.05-.1.09-.14.13s-.09.08-.14.11c-.06.04-.11.08-.17.11-.01,0-.02.02-.04.02-.06.04-.13.07-.2.1-.09.04-.18.07-.28.08-.02,0-.04,0-.06,0h-.02s-.03,0-.04,0h-.02s-.02,0-.04-.01h-.02s-.03-.02-.05-.03c-.02,0-.03-.02-.05-.04-.02-.02-.03-.03-.04-.06-.02-.05-.04-.1-.04-.15,0-.05,0-.09,0-.14,0-.05,0-.09.02-.14,0-.05.02-.1.04-.15,0-.03.02-.06.03-.08,0-.01,0-.02.01-.04.03-.07.06-.14.08-.22,0-.04.02-.08.04-.11.02-.03.03-.06.06-.08.02-.02.05-.04.08-.05s.06-.02.09-.02c.06,0,.13-.01.19-.02.07-.02.14-.04.2-.06l.07-.02s.08-.03.12-.04h0s.09-.04.14-.06c.17-.08.33-.16.49-.26.04-.02.08-.05.12-.08.08-.06.15-.11.22-.18.03-.03.07-.07.1-.1.03-.03.05-.06.08-.09.03-.03.05-.06.08-.1.05-.07.09-.14.12-.22.02-.04.03-.08.04-.12,0-.04.02-.08.02-.12v-.06c0-.06-.03-.12-.06-.18-.02-.05-.06-.08-.1-.11-.04-.03-.09-.05-.14-.05h-.02s-.07,0-.1,0h-.03s-.05,0-.07,0h-.03s-.06,0-.09.02c-.16.03-.32.07-.47.13-.04.02-.07.03-.11.05s-.07.03-.11.05c-.05.02-.1.05-.14.08-.02.02-.05.03-.07.04-.02.02-.04.03-.06.04-.05.03-.1.06-.15.1-.01,0-.02.02-.03.02-.06.04-.11.08-.16.12-.06.05-.13.1-.18.16-.06.06-.12.11-.17.17-.06.06-.12.13-.18.2-.05.06-.09.11-.13.17-.04.06-.08.12-.12.18-.05.08-.09.15-.14.24-.03.05-.06.11-.08.16-.03.06-.05.11-.08.18-.02.05-.04.1-.06.16-.02.05-.03.11-.05.16-.07.1-.15.19-.24.28-.05.06-.1.11-.15.17-.05.05-.1.1-.15.14h-.02c-.05.05-.09.09-.14.12h-.02s-.03.04-.05.05c-.02.02-.05.03-.07.04-.02,0-.04.02-.06.02h-.02s-.03.02-.05.02h0s-.03,0-.05,0c-.02,0-.04,0-.06,0,0,0-.01,0-.02,0,0,0-.02,0-.03-.02-.02-.02-.03-.03-.05-.05-.02-.02-.03-.05-.03-.08,0-.03,0-.06,0-.09,0-.06.02-.12.04-.18,0-.03.02-.06.03-.09s.03-.06.04-.08c.02-.03.03-.05.04-.07s.03-.04.04-.06c.07-.13.15-.26.24-.39.02-.03.04-.07.06-.1.02-.03.04-.06.06-.1.02-.03.03-.06.05-.09.02-.04.04-.07.06-.11.04-.07.09-.14.13-.22.05-.07.09-.14.13-.21.11-.16.21-.33.31-.5.02-.04.05-.09.07-.14.03-.06.06-.13.1-.2.03-.08.07-.16.1-.24,0-.02,0-.03,0-.05v-.05s0-.06-.01-.08v-.02s0-.02,0-.02c-.02,0-.05,0-.08,0h-.26c-.06,0-.14,0-.24,0-.08,0-.16.02-.23.05-.02.02-.03.05-.04.07,0,.03-.02.06-.03.09h0s0,.02,0,.03c0,.01,0,.02,0,.03-.02.05-.03.1-.04.16,0,.03-.02.06-.03.08-.01.03-.03.06-.05.09l-.1.17-.08.13-.05.08c-.07.13-.15.25-.22.38-.05.08-.1.16-.16.23-.05.08-.1.16-.15.24-.1.16-.19.34-.28.53-.02.05-.04.1-.06.15s-.04.11-.07.18c-.03.09-.06.18-.06.28,0,.03,0,.06,0,.09,0,.08.02.16.05.23,0,.02.02.05.03.07,0,.02.02.04.03.06.01.02.02.03.04.05h0s.06.05.09.06c.07.03.14.04.22.04.15,0,.3-.02.45-.07.05-.02.09-.03.14-.06.05-.03.1-.06.16-.09l.05-.03s.07-.05.11-.07c.02-.02.04-.03.06-.04.04-.03.08-.06.11-.1.06-.06.13-.13.19-.19.06-.07.12-.14.17-.22,0,.03,0,.06,0,.09s0,.06,0,.1c.01.09.04.18.08.26.02.03.03.06.05.09.05.08.12.14.21.19.03.02.06.03.08.04.02,0,.03,0,.05.02.02,0,.04.01.06.02.06.01.11.02.17.02h.08s.08,0,.13,0h.02c.05,0,.1-.02.15-.03.06-.02.12-.04.18-.06.06-.02.11-.05.16-.08.02,0,.04-.02.06-.03s.04-.03.06-.04c.02-.02.05-.03.07-.05s.05-.04.08-.06.06-.05.1-.08l.04-.03c.07-.06.14-.12.22-.18.13-.11.26-.23.39-.37s.25-.26.37-.38c.1-.12.2-.24.29-.36.04-.05.07-.1.1-.16.02-.04.04-.09.06-.13,0-.02,0-.04,0-.06,0-.02,0-.03-.01-.04h0ZM24.84,13.71s.03-.05.05-.08c.1-.16.21-.31.31-.47h0c.05-.08.11-.15.17-.22,0-.01.02-.02.03-.04.07-.08.14-.17.22-.25,0,0,.03-.04.07-.08s.08-.08.13-.12c.05-.04.1-.09.15-.12.03-.02.07-.05.1-.06.02,0,.03-.02.05-.02.02,0,.04-.01.06-.02h.03s.02,0,.03,0c0,0,.02,0,.02.01s.01.01.02.02c0,0,0,.02.01.03s0,.02,0,.04c0,.06,0,.12-.03.17l-.03.06s-.04.08-.06.12c-.02.04-.04.07-.05.1-.05.07-.1.14-.16.21-.06.07-.13.13-.19.19-.07.06-.14.12-.21.18-.04.03-.08.06-.12.09s-.07.05-.1.08c-.1.07-.21.12-.32.14-.06.02-.12.02-.18.03h0Z"/>
    <path class="st1" d="M26.41,19.92l-1.67-.24-.52,2.53s0,.06,0,.08c-.04.17-.27.22-.43.25-.13.02-.32.05-.54.08-.46.06-1.46.19-1.77.34l4.07.96-.08-2.24s0-.04.01-.05l.94-1.7h0Z"/>
    <path class="st1" d="M23.21,22.42c.22-.03.41-.05.54-.07.05,0,.1-.02.15-.04-.29-.09-.94-.28-1.88-.49l-.1-.02-.1-.02-.08-.02-.1.37-.13.46-.04.15s.06-.02.1-.03c.32-.1.86-.18,1.66-.29h0Z"/>
    <path class="st1" d="M8.3,22.4c-.17-.03-.39-.09-.43-.25h0s-.02-.04-.03-.06l-.69-2.53-1.48.21.94,1.7s.01.03.01.05l-.08,2.23,4.07-.96c-.31-.14-1.31-.27-1.77-.34-.22-.03-.42-.05-.54-.08h0Z"/>
    <path class="st1" d="M10.45,21.99l-.1-.36-.08.02-.1.02-.1.02c-.65.12-1.3.27-1.97.44.03.02.1.05.24.07.13.02.32.05.54.07.79.1,1.33.19,1.65.29.03,0,.07.02.1.03l-.04-.15-.13-.46h0Z"/>
    <path class="st1" d="M11.53,20.06l-.03-.23c-.02-.12-.07-.15-.17-.14h-.07s.02.15.02.15l.06.55h.07c.1-.02.15-.06.14-.18l-.02-.14h0Z"/>
    <path class="st1" d="M17.61,18.66h-.09l-.03.59h.07c.13,0,.16-.05.17-.12l.02-.36c0-.08-.05-.1-.14-.1h0Z"/>
    <path class="st1" d="M11.43,19.29l-.04-.3c-.01-.11-.06-.14-.15-.14h-.08s.07.61.07.61h.08c.1-.02.13-.06.12-.17Z"/>
    <path class="st1" d="M19.39,18.75c-.08,0-.12.01-.13.11l-.13,1.35c0,.1.03.13.1.14.08,0,.11-.01.12-.11l.13-1.35c0-.1-.03-.13-.1-.13Z"/>
    <path class="st1" d="M21.69,21.55l.1.02.13.03.1.02.1.02c.71.15,1.26.3,1.6.4.13.04.23.07.3.1v-.03s.03-.1.03-.1l.49-2.35.02-.1.02-.1.14-.66c-.39-.11-.77-.22-1.15-.31-.1-.02-.2-.05-.3-.07-.4-.1-.79-.18-1.18-.26-1-.2-1.97-.34-2.91-.44-.03.02-.05.03-.08.05-.44.22-.92.34-1.41.34h-.14c-.08,0-.17-.02-.26-.03-.11-.02-.21-.05-.31-.09-.11-.05-.21-.11-.3-.19-.08-.07-.14-.15-.18-.25-2.22-.06-4.45.12-6.64.51-.44.08-.84.16-1.18.24-.11.02-.21.05-.3.07-.62.15-1.04.27-1.2.33,0,0-.01,0-.02.02,0,0,0,.02,0,.02l.17.62.03.1.03.1.64,2.35.02.06.14-.03c.12-.03.23-.06.35-.09.5-.12.98-.23,1.47-.32.03,0,.07-.01.1-.02l.1-.02.13-.02.1-.02.1-.02c.1-.02.2-.03.3-.05.14-.02.28-.04.42-.06.66-.1,1.31-.17,1.94-.22.86-.07,1.7-.1,2.49-.1,1.1,0,2.11.06,3.04.15.7.07,1.36.16,1.94.25.14.02.29.05.42.07.18.03.35.06.52.1l.1.02h-.01ZM11.89,20.34c-.05.14-.16.24-.38.27l-.52.06-.15-1.25-.09-.75.52-.06c.3-.03.45.1.48.31l.04.32c.02.18-.1.24-.31.3h0c.24.02.36.05.39.27l.04.32c0,.07,0,.14-.02.2h0ZM12.67,20.5l-.15-2,.37-.03.15,2s-.37.03-.37.03ZM14.25,20.44c-.23,0-.49-.06-.5-.32l-.02-.46.37-.02.02.44c0,.1.04.12.12.12.08,0,.11-.03.11-.13v-.21c-.02-.28-.63-.54-.64-.86v-.29c-.02-.26.23-.35.46-.36.23,0,.49.06.5.32l.02.42h-.37s-.02-.38-.02-.38c0-.1-.04-.12-.12-.12s-.12.03-.11.13v.25c.02.14.63.55.64.76v.35c.02.26-.23.35-.47.36h0ZM16.42,18.64h-.32v1.74h-.38v-1.75s-.31,0-.31,0v-.26h1.02v.27h0ZM18.1,19.08c0,.15-.07.27-.38.28h0c.17.03.34.09.34.27,0,.27-.03.55.02.83l-.37-.02c-.05-.23-.02-.54,0-.77,0-.12-.05-.17-.22-.18l-.05.93-.37-.02.1-2,.49.02c.3.02.48.11.46.37l-.02.28h0ZM19.73,20.3c-.02.26-.29.31-.52.29s-.48-.12-.45-.38l.13-1.4c.02-.26.29-.31.52-.29s.48.12.46.38l-.13,1.4h0ZM21.28,19.03l-.04.27-.2,1.46-.37-.05.13-.96.1-.77-.32-.05.04-.26,1.02.14h0s-.03.26-.03.26l-.15-.02-.18-.02h0Z"/>
  </g>
</svg>
